#!OML:ASF H:\ManfredETheater\Project 1\Capture day 1\Session 1\subject.ASF
:FULLY-SPECIFIED
:DEGREES
234
root -0.35423 16.9459 -45.6854 -166.746 -9.53524 182.369
lowerback 14.3563 2.9174 4.21095
upperback -0.696856 4.57475 0.480554
thorax -8.51871 1.99911 -2.82414
lowerneck -20.621 -7.03675 -6.0858
upperneck 10.2699 -8.36039 3.5991
head 6.86761 -3.96522 1.13968
rclavicle -3.71727e-014 1.82882e-014
rhumerus -36.8481 5.97826 -89.0499
rradius 79.9379
rwrist -9.99237
rhand -26.1486 -0.659521
rfingers 7.12502
rthumb 0.402218 -30.6389
lclavicle -3.71727e-014 1.82882e-014
lhumerus -70.2213 1.34464 94.0869
lradius 112.148
lwrist 23.6535
lhand -20.5902 -10.6086
lfingers 7.12502
lthumb 5.76998 19.2928
rfemur 1.27728 -3.44597 29.0748
rtibia 67.3962
rfoot 24.5121 -18.0311
rtoes 57.2431
lfemur -59.4594 -0.552899 -18.7718
ltibia 47.2197
lfoot -7.05873 -14.8238
ltoes -7.58605
235
root -0.386682 16.8872 -46.1796 -167.377 -9.72836 181.214
lowerback 14.9422 2.73642 3.23076
upperback -0.575482 4.15881 0.1547
thorax -8.79219 1.82834 -2.5712
lowerneck -20.584 -6.9477 -6.13355
upperneck 10.4324 -8.23794 3.63946
head 6.91349 -3.90318 1.17448
rclavicle 8.0309e-014 3.02153e-014
rhumerus -37.8726 4.86966 -89.6063
rradius 76.6442
rwrist -10.3605
rhand -26.3663 -1.01936
rfingers 7.12502
rthumb 0.192008 -30.999
lclavicle 8.0309e-014 3.02153e-014
lhumerus -67.8984 0.75617 94.9027
lradius 110.473
lwrist 23.3942
lhand -20.4009 -10.9237
lfingers 7.12502
lthumb 5.95273 18.9727
rfemur -0.517341 -4.87531 27.2685
rtibia 72.0898
rfoot 23.0093 -18.5233
rtoes 57.2973
lfemur -58.1931 -1.36042 -19.8755
ltibia 49.2534
lfoot -5.79695 -15.0984
ltoes -4.64888
236
root -0.418809 16.8294 -46.6653 -167.962 -9.99677 179.885
lowerback 15.5917 2.53214 2.13759
upperback -0.451196 3.6684 -0.208288
thorax -9.09802 1.62425 -2.27293
lowerneck -20.6363 -6.8667 -6.24334
upperneck 10.6265 -8.11312 3.73256
head 6.98883 -3.83668 1.23351
rclavicle -1.88845e-014 1.27222e-014
rhumerus -38.9255 3.70063 -90.0225
rradius 73.5027
rwrist -10.3054
rhand -26.6789 -1.33423
rfingers 7.12502
rthumb -0.109986 -31.3139
lclavicle -1.88845e-014 1.27222e-014
lhumerus -65.467 -0.0141152 95.7219
lradius 108.762
lwrist 22.9334
lhand -20.3115 -11.3341
lfingers 7.12502
lthumb 6.03909 18.5598
rfemur -2.42129 -6.44269 25.1846
rtibia 76.6111
rfoot 21.3177 -19.0186
rtoes 57.4146
lfemur -56.9094 -2.2103 -21.2039
ltibia 51.4888
lfoot -5.71728 -14.8624
ltoes -2.98338
237
root -0.450649 16.7741 -47.143 -168.48 -10.2929 178.453
lowerback 16.2554 2.32781 0.986436
upperback -0.324466 3.13902 -0.59582
thorax -9.40064 1.40277 -1.94943
lowerneck -20.7762 -6.79543 -6.38418
upperneck 10.8403 -7.99119 3.84505
head 7.08683 -3.77016 1.30107
rclavicle 4.80065e-014 -3.93594e-014
rhumerus -40.0164 2.48656 -90.2744
rradius 70.5317
rwrist -9.84695
rhand -27.0849 -1.52976
rfingers 7.12502
rthumb -0.502077 -31.5089
lclavicle 4.80065e-014 -3.93594e-014
lhumerus -62.9333 -0.963026 96.5028
lradius 107.054
lwrist 22.294
lhand -20.2858 -11.8016
lfingers 7.12502
lthumb 6.06389 18.0917
rfemur -4.47968 -8.07204 22.9109
rtibia 80.9346
rfoot 19.4879 -19.494
rtoes 57.4961
lfemur -55.5719 -3.05688 -22.6587
ltibia 53.7633
lfoot -6.79147 -14.1576
ltoes -3.3278
238
root -0.48197 16.7215 -47.6124 -168.909 -10.6014 177.058
lowerback 16.8687 2.12568 -0.0962152
upperback -0.204521 2.60165 -0.975717
thorax -9.66626 1.17472 -1.64195
lowerneck -21.0138 -6.72772 -6.55735
upperneck 11.0986 -7.86299 3.97805
head 7.21701 -3.69875 1.37872
rclavicle 1.23246e-014 1.98785e-015
rhumerus -41.1388 1.25355 -90.3541
rradius 67.7213
rwrist -9.06052
rhand -27.5858 -1.59833
rfingers 7.12502
rthumb -0.98588 -31.5758
lclavicle 1.23246e-014 1.98785e-015
lhumerus -60.3357 -2.05432 97.2101
lradius 105.441
lwrist 21.5331
lhand -20.313 -12.267
lfingers 7.12502
lthumb 6.03768 17.627
rfemur -6.75014 -9.71298 20.6379
rtibia 85.0167
rfoot 17.5696 -19.9599
rtoes 57.5031
lfemur -54.1769 -3.84216 -24.0837
ltibia 55.9203
lfoot -8.88108 -13.1617
ltoes -5.67849
239
root -0.513509 16.6729 -48.0748 -169.238 -10.8328 175.834
lowerback 17.3545 1.94351 -1.00886
upperback -0.103633 2.11242 -1.32097
thorax -9.86264 0.964095 -1.3924
lowerneck -21.3173 -6.64969 -6.70596
upperneck 11.3971 -7.71827 4.07658
head 7.36773 -3.62066 1.44231
rclavicle -2.09718e-014 3.18055e-015
rhumerus -42.2816 0.0598855 -90.2692
rradius 65.0342
rwrist -8.07267
rhand -28.1913 -1.54621
rfingers 7.12502
rthumb -1.57065 -31.5202
lclavicle -2.09718e-014 3.18055e-015
lhumerus -57.7315 -3.21859 97.7975
lradius 104.004
lwrist 20.6667
lhand -20.3394 -12.7281
lfingers 7.12502
lthumb 6.0122 17.1666
rfemur -9.29977 -11.2412 18.5648
rtibia 88.8031
rfoot 15.6579 -20.4128
rtoes 57.4473
lfemur -52.7282 -4.5113 -25.3024
ltibia 57.8418
lfoot -11.7479 -12.0309
ltoes -9.91382
240
root -0.546826 16.6318 -48.5342 -169.523 -10.8967 174.875
lowerback 17.6835 1.79574 -1.69616
upperback -0.0359202 1.71645 -1.61351
thorax -9.99192 0.790936 -1.22771
lowerneck -21.5635 -6.54055 -6.7974
upperneck 11.7302 -7.54342 4.12472
head 7.51484 -3.53102 1.48659
rclavicle -6.4605e-015 -3.97569e-015
rhumerus -43.4719 -1.04381 -90.0333
rradius 62.4484
rwrist -7.09008
rhand -28.6946 -1.4097
rfingers 7.12502
rthumb -2.05677 -31.3795
lclavicle -6.4605e-015 -3.97569e-015
lhumerus -55.2683 -4.34469 98.244
lradius 102.857
lwrist 19.6721
lhand -20.3448 -13.1641
lfingers 7.12502
lthumb 6.00697 16.7308
rfemur -12.085 -12.5365 16.8323
rtibia 92.2114
rfoot 13.8251 -20.8505
rtoes 57.3583
lfemur -51.1768 -4.95648 -26.2397
ltibia 59.4606
lfoot -14.8983 -10.9977
ltoes -14.9701
241
root -0.581852 16.6002 -48.9916 -169.769 -10.8064 174.223
lowerback 17.8624 1.66297 -2.11692
upperback -0.0139148 1.40775 -1.84374
thorax -10.0763 0.651391 -1.16353
lowerneck -21.7999 -6.38572 -6.79657
upperneck 12.1502 -7.32146 4.08715
head 7.68007 -3.42288 1.49496
rclavicle -1.30204e-014 -9.93923e-015
rhumerus -44.6222 -1.98484 -89.6812
rradius 59.8573
rwrist -6.20691
rhand -29.1531 -1.20269
rfingers 7.12502
rthumb -2.49955 -31.1678
lclavicle -1.30204e-014 -9.93923e-015
lhumerus -53.0247 -5.34003 98.5474
lradius 102.107
lwrist 18.5386
lhand -20.3049 -13.5607
lfingers 7.12502
lthumb 6.0455 16.333
rfemur -15.1069 -13.5747 15.5669
rtibia 95.1791
rfoot 12.1568 -21.279
rtoes 57.2951
lfemur -49.5572 -5.14738 -26.886
ltibia 60.7661
lfoot -17.8141 -10.1316
ltoes -19.9519
